<svg xmlns="http://www.w3.org/2000/svg" xmlns:xlink="http://www.w3.org/1999/xlink" version="1.1" id="Layer_1" x="0px" y="0px" width="100px" height="100px" viewBox="0 0 100 100" enable-background="new 0 0 100 100" xml:space="preserve">
<polygon fill="#F9ED32" points="50.353,5 37.676,17.643 19.915,12.826 19.915,28.178 8.331,30.284 15.524,40.519 4.085,52.107   15.223,60.385 8.331,79.348 26.373,79.348 28.166,91.99 42.416,83.863 51.945,95 61.268,82.984 76.93,91.087 76.778,74.497   93.484,65.803 83.551,52.107 93.484,40.519 79.939,34.8 80.842,14.933 61.204,18.618 "/>
<path d="M51.945,96c-0.292,0-0.569-0.128-0.76-0.35l-8.992-10.509l-13.532,7.718c-0.288,0.163-0.638,0.174-0.936,0.028  c-0.297-0.146-0.503-0.429-0.55-0.757l-1.671-11.783H8.331c-0.326,0-0.632-0.159-0.819-0.426c-0.188-0.268-0.232-0.609-0.121-0.916  l6.638-18.263L3.489,52.91c-0.232-0.173-0.378-0.438-0.4-0.727c-0.022-0.288,0.082-0.572,0.285-0.778L14.226,40.41l-6.713-9.551  c-0.196-0.279-0.236-0.639-0.107-0.955c0.129-0.315,0.411-0.543,0.747-0.604l10.763-1.958V12.826c0-0.312,0.145-0.605,0.393-0.794  c0.247-0.189,0.568-0.253,0.869-0.171l17.203,4.665L49.646,4.292c0.201-0.201,0.48-0.305,0.763-0.29  c0.284,0.016,0.548,0.152,0.725,0.375l10.477,13.147l19.046-3.574c0.301-0.059,0.61,0.027,0.841,0.228s0.356,0.495,0.343,0.8  L80.97,34.149l12.903,5.448c0.294,0.124,0.512,0.381,0.585,0.691s-0.007,0.638-0.215,0.88l-9.42,10.99l9.471,13.057  c0.171,0.235,0.23,0.533,0.164,0.816c-0.067,0.283-0.254,0.523-0.512,0.657l-16.162,8.411l0.144,15.777  c0.015,0.067,0.021,0.138,0.021,0.209c0,0.553-0.447,1-1,1c-0.005,0.001-0.012,0-0.02,0c-0.157,0-0.315-0.037-0.46-0.111  l-14.922-7.721l-8.812,11.358C52.551,95.851,52.27,95.992,51.97,96C51.961,96,51.953,96,51.945,96z M42.416,82.863  c0.285,0,0.564,0.121,0.76,0.35l8.731,10.205l8.57-11.047c0.294-0.38,0.818-0.498,1.25-0.275l14.188,7.34l-0.137-14.93  c-0.003-0.376,0.205-0.722,0.538-0.896l15.678-8.159l-9.253-12.757c-0.271-0.374-0.251-0.887,0.051-1.237l9.042-10.55l-12.283-5.187  c-0.386-0.162-0.629-0.548-0.61-0.966l0.845-18.606l-18.396,3.452c-0.362,0.067-0.735-0.069-0.967-0.359L50.267,6.497L38.382,18.351  c-0.253,0.253-0.623,0.351-0.968,0.257l-16.5-4.474v14.044c0,0.483-0.346,0.897-0.821,0.983l-10.046,1.827l6.294,8.955  c0.278,0.396,0.233,0.934-0.106,1.277L5.605,51.991l10.214,7.591c0.354,0.264,0.494,0.729,0.343,1.145L9.758,78.348h16.615  c0.498,0,0.92,0.366,0.99,0.859l1.586,11.186l12.971-7.398C42.076,82.906,42.247,82.863,42.416,82.863z"/>
<circle fill="#FBB040" cx="48.51" cy="51.717" r="24.922"/>
<path d="M48.51,77.639c-14.293,0-25.922-11.629-25.922-25.922c0-14.294,11.628-25.923,25.922-25.923  c14.294,0,25.923,11.629,25.923,25.923C74.433,66.01,62.804,77.639,48.51,77.639z M48.51,27.794  c-13.19,0-23.922,10.731-23.922,23.923c0,13.19,10.731,23.922,23.922,23.922c13.191,0,23.923-10.731,23.923-23.922  C72.433,38.525,61.701,27.794,48.51,27.794z"/>
<circle cx="41.208" cy="46.988" r="3.012"/>
<circle cx="55.836" cy="46.988" r="3.012"/>
<path d="M63.8,45.026c-0.075,0-0.15-0.008-0.227-0.025c-3.671-0.852-7.195-4.811-7.344-4.979c-0.365-0.414-0.325-1.045,0.088-1.41  c0.415-0.364,1.046-0.326,1.412,0.087c0.032,0.036,3.253,3.647,6.295,4.353c0.538,0.125,0.873,0.662,0.749,1.2  C64.666,44.714,64.255,45.026,63.8,45.026z"/>
<path d="M33.561,45.026c-0.455,0-0.866-0.312-0.973-0.774c-0.125-0.538,0.21-1.075,0.749-1.2c3.053-0.707,6.262-4.315,6.294-4.352  c0.365-0.415,0.997-0.455,1.411-0.089c0.415,0.365,0.454,0.997,0.089,1.411c-0.148,0.168-3.672,4.127-7.343,4.979  C33.712,45.019,33.636,45.026,33.561,45.026z"/>
<path d="M38.873,63.576c-0.21,0-0.421-0.065-0.602-0.202c-0.44-0.333-0.528-0.96-0.195-1.4c2.437-3.226,6.185-5.269,10.025-5.466  c2.889-0.141,7.271,0.666,11.666,5.387c0.376,0.404,0.354,1.037-0.051,1.414c-0.405,0.375-1.037,0.353-1.414-0.051  c-3.062-3.291-6.554-4.924-10.098-4.753c-3.258,0.168-6.447,1.915-8.532,4.674C39.475,63.439,39.176,63.576,38.873,63.576z"/>
<path fill="#00AEEF" d="M29.911,26.701c0,0-3.574,5.759-3.574,8.571c0,3.723,5.223,6.295,6.964,1.376  C34.716,32.651,29.911,26.701,29.911,26.701z"/>
<path d="M30.154,40.361C30.154,40.361,30.154,40.361,30.154,40.361c-2.566,0-4.817-2.378-4.817-5.089  c0-3.011,3.343-8.484,3.724-9.099c0.171-0.275,0.464-0.45,0.788-0.471c0.327-0.014,0.636,0.117,0.84,0.37  c0.211,0.261,5.138,6.437,3.556,10.909C33.484,39.13,31.993,40.361,30.154,40.361z M30.002,28.521  c-1.118,1.992-2.665,5.112-2.665,6.751c0,1.739,1.514,3.089,2.817,3.089c1.223,0.001,1.874-1.112,2.205-2.047  C33.172,34.016,31.375,30.57,30.002,28.521z"/>
</svg>